<svg height="512pt" viewBox="0 -30 512.00109 512" width="512pt" xmlns="http://www.w3.org/2000/svg"><path d="m483.136719 219.945312c-23.082031 2.277344-42.75 12.851563-56.328125 22.488282-10.664063 7.570312-25.382813 4.964844-32.796875-5.804688-9.445313-13.714844-24.289063-30.398437-45.1875-40.460937-12.144531-5.851563-26.414063 2.179687-27.816407 15.585937-3.515624 33.625 1.09375 94.394532 73.539063 117.375 75.933594 3.285156 101.125-52.207031 109.367187-84.992187 3.285157-13.078125-7.359374-25.515625-20.777343-24.191407zm0 0" fill="#00bdba"/><path d="m300.644531 147.570312c9.882813-50.460937-7.6875-90.117187-39.027343-120.871093-24.578126-24.121094-66.03125-19.863281-82.769532-16.902344-4.855468.855469-9.8125.855469-14.667968 0-16.734376-2.960937-58.191407-7.21875-82.769532 16.902344-31.335937 30.753906-48.910156 70.410156-39.023437 120.871093 9.882812 50.464844-76.882813 111.96875 29.652343 175.667969 1.097657-1.097656 197.851563-1.097656 198.949219 0 106.539063-63.699219 19.769531-125.203125 29.65625-175.667969zm0 0" fill="#f6334c"/><path d="m37.226562 327.65625c-22.753906 0-29.726562-10.785156-29.726562-23.035156 0-22.90625 22.648438-21.4375 22.898438-21.429688 36.855468 1.230469 63.949218-7.296875 80.523437-25.324218 24.441406-26.578126 20.003906-67.09375 19.957031-67.5l44.007813-5.507813c.3125 2.457031 7.242187 60.679687-30.949219 102.625-24.285156 26.675781-60.164062 40.171875-106.710938 40.171875zm0 0" fill="#ff8f71"/><path d="m106.050781 205.882812s-26.335937 238.738282 154.542969 238.738282c119.304688 0 146.804688-89.175782 151.703125-149.890625 1.027344-12.753907-15.285156-18.921875-22.957031-8.683594-14.359375 19.160156-37.144532 36.96875-72.253906 36.96875-75.964844 0-76.019532-138.15625-76.019532-138.15625zm0 0" fill="#76e7e7"/><path d="m281.121094 420.726562c-13.71875-15.574218-16.574219-38.171874-6.660156-56.40625 12.425781-22.847656 11.5-50.910156 11.5-50.910156-44.847657-31.335937-44.894532-128.550781-44.894532-128.550781l-135.015625 21.023437s-26.335937 238.738282 154.542969 238.738282c16.535156 0 31.3125-1.714844 44.507812-4.828125-10.152343-5.582031-17.976562-12.25-23.980468-19.066407zm0 0" fill="#2eddda"/><path d="m241.066406 184.859375-135.015625 21.023437s-1.652343 14.972657-1.289062 37.414063c5.296875 2.460937 11.734375 6.519531 17.738281 13.167969 5.199219 5.757812 13.792969 7 20.457031 3.027344 9.902344-5.90625 26.296875-12.027344 49.984375-9.960938l-3.308594 27.6875s28.796876 5.445312 66.441407-6.453125c-14.984375-39.121094-15.007813-85.90625-15.007813-85.90625zm0 0" fill="#ffcbbe"/><path d="m76.929688 355.683594c-22.75 0-29.726563-10.789063-29.726563-23.035156 0-22.191407 22.648437-21.4375 22.898437-21.429688 36.859376 1.230469 63.949219-7.300781 80.527344-25.324219 24.441406-26.578125 20-67.097656 19.953125-67.503906l44.007813-5.503906c.3125 2.457031 7.242187 60.675781-30.945313 102.625-24.285156 26.675781-60.164062 40.171875-106.714843 40.171875zm0 0" fill="#ffb39d"/><path d="m261.617188 143.003906c0 53.371094-43.265626 96.636719-96.636719 96.636719-53.371094 0-96.636719-43.265625-96.636719-96.636719 0-53.375 43.265625-96.640625 96.636719-96.640625 53.371093 0 96.636719 43.265625 96.636719 96.640625zm0 0" fill="#ffddcf"/><path d="m144.03125 48.644531c6.746094-1.492187 13.753906-2.277343 20.949219-2.277343 48.585937 0 88.800781 35.859374 95.621093 82.554687-112.347656-10.582031-116.570312-80.277344-116.570312-80.277344zm0 0" fill="#fd5c6f"/><path d="m185.925781 48.640625c-6.746093-1.488281-13.75-2.273437-20.945312-2.273437-48.585938 0-88.800781 35.859374-95.617188 82.554687 112.34375-10.582031 116.5625-80.277344 116.5625-80.28125zm0 0" fill="#ff8a98"/><path d="m214.199219 180.394531c4.144531 0 7.5-3.359375 7.5-7.5v-12.453125c0-4.140625-3.355469-7.5-7.5-7.5-4.140625 0-7.5 3.359375-7.5 7.5v12.453125c0 4.140625 3.359375 7.5 7.5 7.5zm0 0"/><path d="m119.382812 180.394531c4.140626 0 7.5-3.359375 7.5-7.5v-12.453125c0-4.140625-3.359374-7.5-7.5-7.5-4.144531 0-7.5 3.359375-7.5 7.5v12.453125c0 4.140625 3.355469 7.5 7.5 7.5zm0 0"/><path d="m166.789062 183.167969c7.140626 0 13.742188-3.5625 17.664063-9.53125 2.273437-3.460938 1.308594-8.113281-2.152344-10.386719-1.269531-.832031-6.882812-2.992188-10.386719 2.152344-1.679687 2.464844-4.128906 2.761718-5.125 2.761718-.992187 0-3.480468-.269531-5.121093-2.761718-2.273438-3.464844-6.925781-4.425782-10.386719-2.152344s-4.425781 6.925781-2.152344 10.386719c3.921875 5.964843 10.523438 9.53125 17.660156 9.53125zm0 0"/><path d="m505.4375 221.703125c-5.722656-6.632813-14.335938-10.078125-23.035156-9.222656-25.304688 2.496093-46.558594 14.339843-59.9375 23.839843-3.507813 2.488282-7.761719 3.449219-11.964844 2.703126-4.210938-.746094-7.871094-3.105469-10.3125-6.648438-9.304688-13.511719-24.910156-32.5625-48.109375-42.964844-23.648437-10.609375-31.035156 5.171875-33.277344 8.171875-.109375-.277343-14.769531-27.832031-10.796875-48.570312 9.308594-48.625-4.320312-91.539063-41.132812-127.664063-27.0625-26.558594-71.484375-22.09375-89.328125-18.9375-4 .707032-8.058594.707032-12.058594 0-17.839844-3.152344-62.265625-7.621094-89.328125 18.9375-6.285156 6.164063-11.976562 12.632813-16.925781 19.226563-2.484375 3.3125-1.816407 8.015625 1.5 10.5 3.3125 2.488281 8.011719 1.816406 10.5-1.496094 4.496093-5.988281 9.6875-11.886719 15.433593-17.523437 7.359376-7.222657 29.515626-23.125 76.210938-14.871094 5.734375 1.011718 11.550781 1.011718 17.28125 0 46.695312-8.257813 68.851562 7.648437 76.210938 14.871094 32.984374 32.367187 45.40625 70.75 36.917968 114.074218-3.605468 18.410156 3.601563 36.722656 11.230469 56.113282 13.480469 34.257812 26.238281 66.671874-18.429687 101.683593-26.472657-22.792969-34.257813-73.546875-36.535157-100.226562 12.308594-17.101563 19.570313-38.066407 19.570313-60.695313 0-57.421875-46.71875-104.136718-104.140625-104.136718-57.417969 0-104.136719 46.714843-104.136719 104.136718 0 31.6875 14.234375 60.113282 36.640625 79.226563-.351563 9.386719-.472656 22.355469.375 37.371093-15.078125 11.453126-37.1875 16.878907-65.8125 16.121094-12.753906-24.617187-3.402344-48.394531 6.46875-73.480468 7.632813-19.390626 14.835937-37.703126 11.230469-56.113282-5.011719-25.585937-2.753906-49.601562 6.714844-71.382812 1.648437-3.800782-.089844-8.21875-3.890626-9.867188-3.800781-1.648437-8.214843.089844-9.867187 3.890625-10.699219 24.621094-13.285156 51.617188-7.675781 80.242188 2.761718 14.113281-3.664063 30.445312-10.46875 47.738281-9.726563 24.71875-20.597656 52.390625-7.960938 81.386719-2.882812 1.164062-16.597656 8.359375-16.597656 26.484375 0 30.128906 38.9375 30.515625 39.796875 30.507812.703125 10.050782 6.277344 28.054688 37.132813 28.054688 15.160156 0 29.253906-1.390625 42.257812-4.152344 11.652344 27.214844 27.777344 48.835938 47.984375 64.257812 25.0625 19.132813 56.496094 28.832032 93.421875 28.832032 44.011719 0 79.804688-11.863282 106.386719-35.257813 3.109375-2.734375 3.410156-7.476562.675781-10.585937-2.738281-3.109375-7.476562-3.410156-10.585938-.675782-23.761718 20.914063-56.21875 31.519532-96.476562 31.519532-60.101562 0-102.710938-27.566406-126.738281-81.9375 22.195312-6.996094 40.707031-18.558594 55.335937-34.625 9.949219-10.929688 17.015625-22.828125 22.019532-34.652344 10.476562-.277344 24.597656-1.699219 40.578124-6.070312 12.039063 27.664062 32.046876 50.679687 65.296876 50.679687 31.601562 0 58.660156-13.824219 78.253906-39.972656 2.203125-2.9375 5.21875-2.089844 6.089844-1.761719.871093.328125 3.6875 1.6875 3.390624 5.34375-2.871093 35.605469-12.175781 65.363281-27.664062 88.445312-2.308594 3.441407-1.390625 8.101563 2.050781 10.40625 1.28125.863282 7.085938 3.105469 10.40625-2.046874 10.203125-15.835938 18.375-33.949219 23.589844-54.695313 66.808594-5.847656 90.046875-58.691406 97.984375-90.273437 2.140625-8.527344-.007812-17.59375-5.75-24.257813zm-254.253906-101.40625c-32.765625-4.398437-58.230469-14.609375-75.863282-30.429687.097657-.117188.199219-.230469.292969-.347657 9.765625-12.128906 14.195313-23.851562 16.1875-31.523437 28.976563 9.15625 51.59375 32.75 59.382813 62.300781zm-86.203125-66.429687c4.128906 0 8.1875.289062 12.167969.832031-1.675782 6.191406-5.445313 16.015625-13.839844 26.175781-17.085938 20.679688-46.1875 34.207031-84.527344 39.414062 10.070312-38.183593 44.898438-66.421874 86.199219-66.421874zm-89.136719 89.136718c0-2.445312.101562-4.867187.296875-7.261718 28.4375-3.347657 63.671875-12.324219 88.835937-35.007813 20.777344 18.796875 50.613282 30.554687 88.84375 35.003906.195313 2.398438.296876 4.820313.296876 7.265625 0 49.148438-39.984376 89.132813-89.136719 89.132813-49.148438 0-89.136719-39.984375-89.136719-89.132813zm41.398438 155.125c-2.484376-14.429687-3.828126-28.328125-4.484376-40.730468 1.457032 1.273437 10.355469 11.894531 21.832032 11.894531 11.472656 0 18.9375-6.933594 22.636718-8.277344-3.65625 18.90625-28.507812 33.269531-39.984374 37.113281zm36.125-51.644531c-5.050782 1.742187-9.824219 3.925781-14.25 6.566406-3.613282 2.152344-8.261719 1.476563-11.050782-1.613281-4.652344-5.148438-9.972656-9.402344-15.847656-12.714844-.007812-2.070312-.003906-4.0625.015625-5.964844 12.320313 7.265626 26.257813 12.070313 41.132813 13.726563zm-138.367188 58.136719c-.214844-15.082032 14.929688-13.9375 15-13.9375.039062 0 .105469.003906.148438.003906 28.414062.9375 51.566406-3.765625 69.054687-13.984375.816406 8.058594 1.933594 16.476563 3.445313 25.074219-9.636719 1.691406-20.429688 2.652344-32.3125 1.945312-21.546876-1.28125-26.867188 13.304688-28.199219 16.382813-23.742188-.355469-27.074219-11.234375-27.136719-15.484375zm163.097656 5.839844c-22.789062 25.03125-56.824218 37.722656-101.167968 37.722656-22.226563 0-22.226563-11.285156-22.226563-15.535156 0-13.332032 13.105469-14.003907 15.148437-13.933594 39.128907 1.308594 68.164063-8.027344 86.296876-27.746094 12.695312-13.804688 18.222656-30.859375 20.574218-44.496094 10.773438-1.214844 21.054688-4.078125 30.585938-8.335937-1.609375 20.609375-8.082032 49.117187-29.210938 72.324219zm38.523438-39.808594c4.492187-15.464844 5.898437-29.972656 6.117187-41.042969 4.746094-3.179687 9.21875-6.734375 13.375-10.628906 1.8125 13.914062 4.933594 30.597656 10.308594 46.773437-11.265625 2.976563-21.441406 4.351563-29.800781 4.898438zm82.988281 41.585937c11.917969-10.085937 19.90625-20.191406 24.972656-30.203125 5.382813 10.792969 12.539063 20.3125 21.433594 28.476563-21.382813 9.570312-41.140625 3.832031-46.40625 1.726562zm197.027344-69.929687c-3.464844 13.78125-10.585938 33.617187-24.847657 49.835937-14.144531 16.089844-32.714843 25.699219-55.292968 28.644531 1.460937-8.160156 2.566406-16.640624 3.277344-25.457031.730468-9.078125-4.507813-17.351562-13.035157-20.578125-8.53125-3.230468-17.9375-.496094-23.402343 6.796875-6.746094 9.003907-14.359376 16.230469-22.792969 21.667969-14.175781-11.410156-23.902344-26.394531-28.910157-44.625 1.386719-12.328125-.582031-24.34375-3.875-35.804688.113282-3.390624-.015624-15.601562 6.828126-19.523437 3.417968-1.960937 7.445312-2.046875 10.984374-.34375 19.941407 9.605469 33.988282 25.945313 42.265626 37.960937 4.734374 6.875 11.855468 11.460938 20.050781 12.910157 8.191406 1.449219 16.457031-.410157 23.261719-5.242188 11.894531-8.445312 30.699218-18.96875 52.726562-21.144531 3.917969-.382812 7.628906 1.105469 10.199219 4.09375 2.597656 3.011719 3.53125 6.949219 2.5625 10.808594zm0 0"/></svg>