<?xml version="1.0" encoding="UTF-8" standalone="no"?>
<svg
   xmlns:dc="http://purl.org/dc/elements/1.1/"
   xmlns:cc="http://creativecommons.org/ns#"
   xmlns:rdf="http://www.w3.org/1999/02/22-rdf-syntax-ns#"
   xmlns:svg="http://www.w3.org/2000/svg"
   xmlns="http://www.w3.org/2000/svg"
   xmlns:sodipodi="http://sodipodi.sourceforge.net/DTD/sodipodi-0.dtd"
   xmlns:inkscape="http://www.inkscape.org/namespaces/inkscape"
   version="1.1"
   id="Capa_1"
   x="0px"
   y="0px"
   viewBox="0 0 477.867 477.867"
   style="enable-background:new 0 0 477.867 477.867;"
   xml:space="preserve"
   sodipodi:docname="equalizer.svg"
   inkscape:version="1.0.2 (e86c870879, 2021-01-15, custom)"><metadata
   id="metadata55"><rdf:RDF><cc:Work
       rdf:about=""><dc:format>image/svg+xml</dc:format><dc:type
         rdf:resource="http://purl.org/dc/dcmitype/StillImage" /></cc:Work></rdf:RDF></metadata><defs
   id="defs53" /><sodipodi:namedview
   pagecolor="#ffffff"
   bordercolor="#666666"
   borderopacity="1"
   objecttolerance="10"
   gridtolerance="10"
   guidetolerance="10"
   inkscape:pageopacity="0"
   inkscape:pageshadow="2"
   inkscape:window-width="1920"
   inkscape:window-height="1017"
   id="namedview51"
   showgrid="false"
   inkscape:zoom="1.2577574"
   inkscape:cx="370.27185"
   inkscape:cy="235.9062"
   inkscape:window-x="-8"
   inkscape:window-y="-8"
   inkscape:window-maximized="1"
   inkscape:current-layer="Capa_1" />
<g
   id="g6"
   style="fill:#ffffff">
	<g
   id="g4"
   style="fill:#ffffff">
		<path
   d="M460.8,221.867H185.31c-9.255-36.364-46.237-58.34-82.602-49.085c-24.116,6.138-42.947,24.969-49.085,49.085H17.067    C7.641,221.867,0,229.508,0,238.934S7.641,256,17.067,256h36.557c9.255,36.364,46.237,58.34,82.602,49.085    c24.116-6.138,42.947-24.969,49.085-49.085H460.8c9.426,0,17.067-7.641,17.067-17.067S470.226,221.867,460.8,221.867z     M119.467,273.067c-18.851,0-34.133-15.282-34.133-34.133c0-18.851,15.282-34.133,34.133-34.133s34.133,15.282,34.133,34.133    C153.6,257.785,138.318,273.067,119.467,273.067z"
   id="path2"
   style="fill:#ffffff" />
	</g>
</g>
<g
   id="g12"
   style="fill:#ffffff">
	<g
   id="g10"
   style="fill:#ffffff">
		<path
   d="M460.8,51.2h-53.623c-9.255-36.364-46.237-58.34-82.602-49.085C300.459,8.253,281.628,27.084,275.49,51.2H17.067    C7.641,51.2,0,58.841,0,68.267s7.641,17.067,17.067,17.067H275.49c9.255,36.364,46.237,58.34,82.602,49.085    c24.116-6.138,42.947-24.969,49.085-49.085H460.8c9.426,0,17.067-7.641,17.067-17.067S470.226,51.2,460.8,51.2z M341.334,102.4    c-18.851,0-34.133-15.282-34.133-34.133s15.282-34.133,34.133-34.133s34.133,15.282,34.133,34.133S360.185,102.4,341.334,102.4z"
   id="path8"
   style="fill:#ffffff" />
	</g>
</g>
<g
   id="g18"
   style="fill:#ffffff">
	<g
   id="g16"
   style="fill:#ffffff">
		<path
   d="M460.8,392.534h-87.757c-9.255-36.364-46.237-58.34-82.602-49.085c-24.116,6.138-42.947,24.969-49.085,49.085H17.067    C7.641,392.534,0,400.175,0,409.6s7.641,17.067,17.067,17.067h224.29c9.255,36.364,46.237,58.34,82.602,49.085    c24.116-6.138,42.947-24.969,49.085-49.085H460.8c9.426,0,17.067-7.641,17.067-17.067S470.226,392.534,460.8,392.534z     M307.2,443.734c-18.851,0-34.133-15.282-34.133-34.133s15.282-34.133,34.133-34.133c18.851,0,34.133,15.282,34.133,34.133    S326.052,443.734,307.2,443.734z"
   id="path14"
   style="fill:#ffffff" />
	</g>
</g>
<g
   id="g20"
   style="fill:#ffffff">
</g>
<g
   id="g22"
   style="fill:#ffffff">
</g>
<g
   id="g24"
   style="fill:#ffffff">
</g>
<g
   id="g26"
   style="fill:#ffffff">
</g>
<g
   id="g28"
   style="fill:#ffffff">
</g>
<g
   id="g30"
   style="fill:#ffffff">
</g>
<g
   id="g32"
   style="fill:#ffffff">
</g>
<g
   id="g34"
   style="fill:#ffffff">
</g>
<g
   id="g36"
   style="fill:#ffffff">
</g>
<g
   id="g38"
   style="fill:#ffffff">
</g>
<g
   id="g40"
   style="fill:#ffffff">
</g>
<g
   id="g42"
   style="fill:#ffffff">
</g>
<g
   id="g44"
   style="fill:#ffffff">
</g>
<g
   id="g46"
   style="fill:#ffffff">
</g>
<g
   id="g48"
   style="fill:#ffffff">
</g>
</svg>
