<svg width="368" height="100" viewBox="0 0 368 100" fill="none" xmlns="http://www.w3.org/2000/svg">
<path d="M0 40C0 17.9086 17.9086 0 40 0L328 0C350.091 0 368 17.9086 368 40V60C368 82.0914 350.091 100 328 100L40 100C17.9086 100 0 82.0914 0 60L0 40Z" fill="#40AAF0"/>
<path d="M152.564 43.864C152.564 45.656 152.132 47.336 151.268 48.904C150.436 50.472 149.108 51.736 147.284 52.696C145.492 53.656 143.22 54.136 140.468 54.136H134.852V67H128.132V33.496H140.468C143.06 33.496 145.268 33.944 147.092 34.84C148.916 35.736 150.276 36.968 151.172 38.536C152.1 40.104 152.564 41.88 152.564 43.864ZM140.18 48.712C142.036 48.712 143.412 48.296 144.308 47.464C145.204 46.6 145.652 45.4 145.652 43.864C145.652 40.6 143.828 38.968 140.18 38.968H134.852V48.712H140.18ZM164.805 61.672H175.845V67H158.085V33.496H164.805V61.672ZM201.411 60.616H188.067L185.859 67H178.803L190.851 33.448H198.675L210.723 67H203.619L201.411 60.616ZM199.587 55.24L194.739 41.224L189.891 55.24H199.587ZM242.616 33.496L231.288 55.336V67H224.568V55.336L213.192 33.496H220.776L227.976 48.808L235.128 33.496H242.616Z" fill="#F7F7FC"/>
</svg>
