<svg width="25" height="25" viewBox="0 0 25 25" fill="none" xmlns="http://www.w3.org/2000/svg">
<path d="M14.75 2.75C14.75 1.64543 13.8546 0.75 12.75 0.75C11.6454 0.75 10.75 1.64543 10.75 2.75L14.75 2.75ZM10.75 22.75C10.75 23.8546 11.6454 24.75 12.75 24.75C13.8546 24.75 14.75 23.8546 14.75 22.75L10.75 22.75ZM10.75 2.75L10.75 22.75L14.75 22.75L14.75 2.75L10.75 2.75Z" fill="white"/>
<path d="M2.75 10.75C1.64543 10.75 0.75 11.6454 0.75 12.75C0.75 13.8546 1.64543 14.75 2.75 14.75V10.75ZM22.75 14.75C23.8546 14.75 24.75 13.8546 24.75 12.75C24.75 11.6454 23.8546 10.75 22.75 10.75V14.75ZM2.75 14.75H22.75V10.75H2.75V14.75Z" fill="white"/>
</svg>
