<svg height="511pt" viewBox="-74 1 511 511.99925" width="511pt" xmlns="http://www.w3.org/2000/svg"><path d="m300.328125 364.167969s9.789063 14.1875 15.652344 42.015625c4.324219 20.535156-14.363281 38.515625-34.742188 33.523437h-21.621093l-9.175782-67.597656zm0 0" fill="#ffdcce"/><path d="m64.328125 364.167969s-9.789063 14.1875-15.648437 42.015625c-4.324219 20.535156 14.363281 38.515625 34.742187 33.523437h21.621094l9.175781-67.597656zm0 0" fill="#ffdcce"/><path d="m328.1875 246.484375c-8.679688 46.078125 38.472656 62.691406-23.445312 98.207031h-36.199219l-25.246094-54.984375 30.007813-50.488281zm0 0" fill="#f0bc63"/><path d="m36.472656 246.484375c8.679688 46.078125-38.472656 62.691406 23.445313 98.207031h36.199219l25.246093-54.984375-30.007812-50.488281zm0 0" fill="#f0bc63"/><path d="m66.476562 246.488281 27.066407-3.585937-2.1875-3.683594-54.882813 7.269531c8.679688 46.078125-38.472656 62.6875 23.445313 98.203125h30.003906c-61.921875-35.515625-14.765625-52.125-23.445313-98.203125zm0 0" fill="#f59e18"/><path d="m304.742188 344.691406c0 24.921875-20.203126 45.125-45.125 45.125-24.921876 0-45.125-20.203125-45.125-45.125s20.203124-45.125 45.125-45.125c24.921874 0 45.125 20.203125 45.125 45.125zm0 0" fill="#e3254c"/><path d="m150.167969 344.691406c0 24.921875-20.203125 45.125-45.125 45.125s-45.125-20.203125-45.125-45.125 20.203125-45.125 45.125-45.125 45.125 20.203125 45.125 45.125zm0 0" fill="#e3254c"/><path d="m93.992188 384.941406c13.441406-45.820312 32.226562-60.988281 32.226562-60.988281h112.21875s18.785156 15.167969 32.226562 60.988281l-88.335937 26.222656zm0 0" fill="#ff889e"/><path d="m278.886719 422.179688c3.574219 22.519531 5.640625 49.695312 4.992187 82.34375h-203.097656c-.648438-32.648438 1.417969-59.824219 4.988281-82.34375zm0 0" fill="#ff889e"/><path d="m15.8125 197.90625c0-91.816406 74.699219-166.515625 166.519531-166.515625 91.816407 0 166.515625 74.699219 166.515625 166.515625zm0 0" fill="#f0bc63"/><path d="m197.332031 32.070312c-4.945312-.441406-9.945312-.679687-15.003906-.679687-91.816406 0-166.515625 74.699219-166.515625 166.515625h30c0-86.761719 66.703125-158.222656 151.519531-165.835938zm0 0" fill="#f59e18"/><path d="m356.660156 197.90625c0 20.097656-16.292968 36.390625-36.390625 36.390625-20.097656 0-36.386719-16.292969-36.386719-36.390625 0-20.09375 16.289063-36.386719 36.386719-36.386719 20.097657 0 36.390625 16.292969 36.390625 36.386719zm0 0" fill="#ffcabd"/><path d="m123.996094 384.941406c13.441406-45.820312 32.226562-60.988281 32.226562-60.988281s-29.617187 0-30 0c-1.503906.003906-4.847656 4.992187-5.679687 6.007813-5.660157 6.894531-14.644531 20.269531-22.648438 42.886718-1.332031 3.769532-2.640625 7.796875-3.898437 12.09375l27.734375 8.234375c.734375-2.851562 1.492187-5.59375 2.265625-8.234375zm0 0" fill="#fd5f7e"/><path d="m315.496094 161.839844c-.207032.019531-51.257813 4.84375-83.796875-38.238282-2.445313-3.234374-7.3125-3.171874-9.667969.128907-5.808594 8.144531-16.6875 21.339843-31.171875 29.820312-5.273437 3.09375-11.785156 3.09375-17.0625 0-14.480469-8.480469-25.359375-21.675781-31.171875-29.820312-2.355469-3.300781-7.21875-3.363281-9.664062-.128907-32.539063 43.082032-83.59375 38.257813-83.796876 38.238282-3.261718 12.070312-4.9375 24.789062-4.761718 37.929687 1.007812 76.070313 64.242187 137.34375 140.308594 136.058594 75.082031-1.269531 135.558593-62.53125 135.558593-137.921875 0-12.480469-1.667969-24.566406-4.773437-36.066406zm0 0" fill="#ffdcce"/><path d="m74.40625 199.769531c-.144531-10.792969.960938-28.050781 3.167969-40.558593-16.179688 3.785156-28.3125 2.640624-28.410157 2.628906-.003906.007812-.003906.011718-.003906.019531-1.519531-.21875-3.105468-.339844-4.769531-.339844-20.097656 0-36.390625 16.292969-36.390625 36.386719 0 20.097656 16.292969 36.390625 36.390625 36.390625 1.675781 0 3.269531-.125 4.800781-.34375 16.167969 59.402344 71.261719 102.960937 135.519532 101.875 4.265624-.074219 8.488281-.347656 12.652343-.800781-68.101562-7.457032-122.027343-65.054688-122.957031-135.257813zm0 0" fill="#ffcabd"/><path d="m259.617188 229.90625h-18.074219c-4.144531 0-7.5-3.355469-7.5-7.5 0-4.140625 3.355469-7.5 7.5-7.5h18.074219c4.140624 0 7.5 3.359375 7.5 7.5 0 4.144531-3.359376 7.5-7.5 7.5zm0 0" fill="#ff889e"/><path d="m123.117188 229.90625h-18.074219c-4.144531 0-7.5-3.355469-7.5-7.5 0-4.140625 3.355469-7.5 7.5-7.5h18.074219c4.140624 0 7.5 3.359375 7.5 7.5 0 4.144531-3.359376 7.5-7.5 7.5zm0 0" fill="#ff889e"/><path d="m250.246094 19.339844c-15.835938 4.207031-40.882813 6.660156-62.3125-9.941406-3.308594-2.5625-7.898438-2.5625-11.207032 0-21.433593 16.605468-46.480468 14.148437-62.316406 9.941406-6.785156-1.804688-12.984375 4.378906-11.113281 11.144531l7.652344 27.671875c2.523437 9.121094 11.46875 14.898438 20.828125 13.480469 12.136718-1.835938 30.097656-3.847657 50.550781-3.847657s38.414063 2.011719 50.550781 3.847657c9.359375 1.417969 18.304688-4.359375 20.828125-13.480469l7.652344-27.671875c1.875-6.769531-4.324219-12.949219-11.113281-11.144531zm0 0" fill="#f5e277"/><g fill="#ff889e"><path d="m191.332031 40.636719c0-6.125-4.03125-11.089844-9.003906-11.089844s-9 4.964844-9 11.089844 4.027344 11.089843 9 11.089843 9.003906-4.964843 9.003906-11.089843zm0 0"/><path d="m333.320312 233.976562c0 9.84375-7.980468 17.820313-17.824218 17.820313s-17.824219-7.976563-17.824219-17.820313 7.980469-17.824218 17.824219-17.824218 17.824218 7.980468 17.824218 17.824218zm0 0"/><path d="m66.988281 233.976562c0 9.84375-7.980469 17.820313-17.824219 17.820313s-17.824218-7.976563-17.824218-17.820313 7.980468-17.824218 17.824218-17.824218 17.824219 7.980468 17.824219 17.824218zm0 0"/></g><path d="m80.78125 504.523438h30c-.648438-32.648438 1.421875-59.824219 4.992188-82.34375h-30.003907c-.222656 1.40625-.4375 2.832031-.648437 4.277343-3.777344 25.820313-4.859375 51.996094-4.339844 78.066407zm0 0" fill="#fd5f7e"/><path d="m278.886719 422.179688c-29.054688 5.238281-62.160157 8.039062-96.554688 8.039062-34.398437 0-67.503906-2.800781-96.558593-8.039062 2.238281-14.214844 5.085937-26.5625 8.222656-37.238282 26.480468 4.675782 56.871094 7.171875 88.335937 7.171875 31.464844 0 61.851563-2.496093 88.335938-7.171875 3.132812 10.675782 5.980469 23.023438 8.21875 37.238282zm0 0" fill="#f5e277"/><path d="m85.773438 422.179688c9.386718 1.691406 19.203124 3.125 29.347656 4.296874 1.84375-12.628906 4.328125-25.171874 7.722656-37.476562-10.003906-1.085938-19.667969-2.4375-28.851562-4.058594-.390626 1.332032-.777344 2.695313-1.160157 4.082032-2.9375 10.664062-5.308593 22.027343-7.058593 33.15625zm0 0" fill="#f0bc63"/><path d="m207.097656 411.164062c0-18.148437-11.089844-32.863281-24.769531-32.863281s-24.765625 14.714844-24.765625 32.863281c0 18.152344 11.085938 32.867188 24.765625 32.867188s24.769531-14.714844 24.769531-32.867188zm0 0" fill="#fd5f7e"/><path d="m250.578125 210.378906c4.144531 0 7.5-3.359375 7.5-7.5v-13.269531c0-4.144531-3.355469-7.503906-7.5-7.503906-4.140625 0-7.5 3.359375-7.5 7.503906v13.269531c0 4.140625 3.359375 7.5 7.5 7.5zm0 0"/><path d="m114.078125 210.378906c4.144531 0 7.503906-3.359375 7.503906-7.5v-13.269531c0-4.144531-3.359375-7.503906-7.503906-7.503906-4.140625 0-7.5 3.359375-7.5 7.503906v13.269531c0 4.140625 3.359375 7.5 7.5 7.5zm0 0"/><path d="m182.328125 229.132812c6.921875 0 13.429687-2.902343 17.855469-7.964843 2.726562-3.117188 2.410156-7.855469-.710938-10.582031-3.117187-2.726563-7.855468-2.410157-10.582031.710937-1.578125 1.800781-3.96875 2.835937-6.5625 2.835937s-4.980469-1.035156-6.558594-2.835937c-2.726562-3.121094-7.464843-3.4375-10.582031-.710937-3.121094 2.726562-3.4375 7.464843-.710938 10.582031 4.421876 5.0625 10.929688 7.964843 17.851563 7.964843zm0 0"/><path d="m40.21875 154.207031c-3.953125.371094-7.84375 1.285157-11.550781 2.710938 10.902343-40.859375 37.863281-75.960938 74.949219-97.160157.613281 2.214844 1.429687 4.355469 2.589843 6.34375 2.816407 4.945313 7.152344 8.78125 12.253907 11.015626.039062.019531.078124.035156.117187.054687 7.230469 3.183594 14.324219 1.773437 21.832031.8125 11.019532-1.40625 25.660156-2.71875 41.917969-2.71875 16.484375 0 33.164063 1.097656 49.441406 3.765625 4.832031.730469 9.847657.0625 14.332031-1.871094.019532-.007812.039063-.019531.0625-.027344 7.320313-3.363281 12.726563-9.597656 14.875-17.371093 11.957032 6.84375 22.996094 15.226562 32.902344 25.003906 2.949219 2.910156 7.699219 2.875 10.609375-.070313 2.90625-2.949218 2.875-7.699218-.070312-10.609374-11.75-11.589844-24.957031-21.390626-39.328125-29.199219 0 0 3.4375-12.417969 3.4375-12.425781 3.355468-12.128907-8.152344-23.613282-20.269532-20.394532-7.113281 1.890625-14.117187 2.847656-20.8125 2.851563-13.386718 0-25.15625-3.859375-34.984374-11.472657-5.933594-4.597656-14.460938-4.59375-20.390626 0-9.828124 7.613282-21.597656 11.472657-34.984374 11.472657-6.695313 0-13.695313-.960938-20.808594-2.851563-12.132813-3.222656-23.625 8.273438-20.273438 20.394532l3.4375 12.429687c-47.375 25.730469-80.304687 71.929687-88.921875 125.039063-6.292969 7.597656-10.082031 17.339843-10.082031 27.953124 0 16.335938 9.257812 31.347657 23.496094 38.855469.539062 4.902344 2.484375 9.386719 5.421875 13.042969 2.132812 13.859375-1.375 24.667969-4.78125 35.125-3.355469 10.285156-6.820313 20.917969-3.167969 32.277344 3.601562 11.207031 13.265625 21.136718 31.132812 31.882812.425782 5.03125 1.566407 9.890625 3.335938 14.472656-3.449219 6.125-10.136719 19.898438-14.597656 41.078126-2.242188 10.640624.390625 21.574218 7.226562 29.996093 6.605469 8.144531 16.199219 12.957031 26.5 13.375-1.578125 17.753907-2.179687 36.710938-1.785156 56.660157.082031 4.082031 3.414062 7.351562 7.5 7.351562h32.402344c4.140625 0 7.5-3.359375 7.5-7.5 0-4.144531-3.359375-7.503906-7.5-7.503906h-25.003906c-.160157-22 .96875-43.988282 3.847656-65.804688.015625-.117187.035156-.230468.050781-.347656 10.167969 1.691406 20.394531 2.6875 30.617187 3.96875 10.332032 1.289062 20.761719 1.753906 31.148438 2.222656 1.261719.058594 2.515625.125 3.789062.175782 4.667969 6.941406 11.058594 11.648437 18.144532 13.457031 4.171875 1.074219 8.949218 1.28125 13.105468 0 7.085938-1.808594 13.476563-6.515625 18.144532-13.457031 1.269531-.050782 2.527344-.117188 3.789062-.175782 20.414063-.921875 40.824219-2.832031 61-6.074218.253906-.039063.511719-.074219.765625-.117188.015625.113281.984375 7.792969 1.019531 8.121094 2.0625 17.988281 3.03125 37.414062 2.878907 58.03125h-133.296875c-4.140625 0-7.5 3.359375-7.5 7.503906 0 4.140625 3.359375 7.5 7.5 7.5h140.695312c4.085938 0 7.417969-3.269531 7.5-7.351562.394532-19.949219-.207031-38.90625-1.785156-56.660157 10.296875-.417969 19.890625-5.230469 26.5-13.375 6.832031-8.421875 9.46875-19.355469 7.226562-29.996093-4.460937-21.179688-11.148437-34.953126-14.597656-41.078126 1.765625-4.582031 2.910156-9.441406 3.335938-14.472656 17.867187-10.746094 27.53125-20.675781 31.132812-31.882812 3.652344-11.359375.1875-21.992188-3.167968-32.277344-3.410157-10.457031-6.914063-21.265625-4.78125-35.125 2.9375-3.65625 4.882812-8.140625 5.421874-13.042969 14.238282-7.507812 23.496094-22.519531 23.496094-38.855469 0-10.613281-3.789062-20.355468-10.078125-27.953124-4.1875-25.765626-14.34375-50.652344-29.472656-72.101563-2.386719-3.386719-7.066406-4.195313-10.453125-1.808594-3.386719 2.390625-4.191406 7.070313-1.804688 10.453125 10.773438 15.28125 18.796876 32.460938 23.621094 50.4375-1.847656-.710937-3.753906-1.296875-5.738281-1.761718-5.082031-1.183594-10.339844-1.449219-15.515625-.792969-1.351562.171875-2.726562.132812-4.082031.132812-28.425781 0-55.667969-12.742187-72.953125-35.429687-5.429688-7.128906-16.539063-7.019532-21.753906.289062-4.949219 6.933594-15.277344 19.753906-28.859376 27.710938-2.878906 1.6875-6.601562 1.6875-9.480468 0-13.585938-7.960938-23.910156-20.777344-28.859375-27.710938-5.207031-7.300781-16.359375-7.433594-21.753907-.289062-13.367187 17.703125-32.925781 29.421875-54.632812 33.628906-6.027344 1.167969-12.175781 1.800781-18.316406 1.800781-4.632813 0-9.175782-.730469-13.808594-.28125zm70.554688-127.046875c.375-.496094 1.042968-.773437 1.710937-.59375 8.371094 2.222656 16.667969 3.351563 24.664063 3.351563 16.792968 0 31.65625-4.917969 44.171874-14.613281.59375-.460938 1.425782-.460938 2.019532 0 12.515625 9.699218 27.378906 14.613281 44.171875 14.613281 7.996093 0 16.292969-1.128907 24.660156-3.351563 1.148437-.304687 2.28125.734375 1.960937 1.894532 0 0-7.652343 27.671874-7.65625 27.683593-1.484374 5.339844-7.003906 8.882813-12.472656 8.054688-17.085937-2.59375-34.394531-3.933594-51.675781-3.933594-17.277344 0-34.59375 1.324219-51.671875 3.933594-5.15625.78125-10.34375-2.242188-12.171875-7.128907-.109375-.296874-7.953125-28.589843-7.957031-28.605468-.136719-.488282-.019532-.953125.246094-1.304688zm27.675781 309.332032c14.957031 4.761718 30.6875 7.074218 46.386719 6.8125 15.949218-.269532 31.84375-3.160157 46.847656-8.585938 1.679687-.609375 3.351562-1.238281 5.011718-1.90625.164063.1875.332032.375.511719.585938 10.648438 12.378906 17.488281 27.621093 22.828125 42.914062.296875.851562.59375 1.726562.886719 2.609375-2.296875.355469-4.617187.695313-6.957031 1.015625-14.820313 2.039062-46.664063 4.09375-47.640625 4.132812-4.242188-5.886718-9.785157-10.039062-15.894531-12.003906-5.265626-1.695312-10.933594-1.695312-16.199219 0-6.113281 1.964844-11.65625 6.117188-15.898438 12.003906-15.925781-.667968-31.828125-1.964843-47.625-4.128906-2.34375-.324218-4.667969-.664062-6.96875-1.019531.679688-2.027344 1.386719-4.046875 2.125-6.050781 4.320313-11.703125 9.683594-23.210938 16.902344-33.425782 1.609375-2.277343 3.386719-4.59375 5.273437-6.714843 3.421876 1.386719 6.894532 2.640625 10.410157 3.761719zm177.046875-112.863282c5.550781 0 10.324218 4.769532 10.324218 10.324219 0 5.523437-4.800781 10.320313-10.324218 10.320313-5.523438 0-10.324219-4.757813-10.324219-10.320313 0-5.695313 4.632813-10.324219 10.324219-10.324219zm-27.570313 96.210938c5.945313 6.816406 9.3125 15.722656 9.3125 24.828125 0 11.664062-5.421875 22.386719-14.132812 29.375-1.992188 1.597656-4.140625 2.984375-6.414063 4.140625-.066406.035156-.132812.066406-.203125.101562-3.101562-9.886718-6.839843-19.589844-11.417969-28.886718-3.972656-8.066407-8.574218-15.878907-14.152343-22.949219-.042969-.050781-.085938-.105469-.125-.15625-.011719-.015625-.023438-.03125-.035157-.046875 2.246094-1.199219 4.433594-2.496094 6.628907-3.789063 6.070312-3.65625 11.863281-7.75 17.339843-12.253906.046876.023437.09375.042969.140626.0625 4.976562 2.195313 9.480468 5.472656 13.058593 9.574219zm-20.648437 96.652344c-15.117188 2.351562-30.355469 3.949218-45.625 4.9375-2.714844.175781-5.453125.328124-8.203125.46875.96875-4.425782 1.304687-9.003907 1.0625-13.527344-.171875-3.207032-.644531-6.464844-1.4375-9.582032 2.480469-.128906 4.941406-.277343 7.390625-.4375 14.976562-.976562 29.957031-2.5625 44.785156-4.917968.03125.117187.0625.238281.09375.355468 1.925781 7.339844 3.546875 14.757813 4.894531 22.226563 0 0-2.621093.421875-2.960937.476563zm-74.503906 15.21875c-2.609376 2.898437-6.046876 4.796874-10.445313 4.796874-12.101563 0-17.265625-15.5625-17.265625-25.363281 0-9.847656 5.195312-25.367187 17.265625-25.367187 12.1875 0 17.269531 15.34375 17.269531 25.367187 0 6.472657-2.003906 15.21875-6.824218 20.566407zm-49.765626-10.285157c-6.070312-.394531-12.132812-.886719-18.183593-1.480469-10.171875-.996093-20.3125-2.289062-30.402344-3.929687 1.648437-7.40625 2.9375-14.855469 4.886719-22.199219.03125-.128906.066406-.257812.101562-.382812.261719.039062.53125.078125.792969.121094 13.417969 2.105468 26.933594 3.585937 40.480469 4.558593 3.632812.257813 7.265625.488281 10.902344.675781-.160157.621094-.285157 1.257813-.417969 1.886719-.726563 3.4375-1.105469 6.953125-1.105469 10.46875 0 3.238281.316406 6.488281.941406 9.667969.015625.078125.167969 1.082031.207032 1.085938-2.734376-.140626-5.472657-.296876-8.203126-.472657zm-59.261718-45.769531c-10.003906-6.949219-16.328125-18.695312-16.328125-30.988281 0-14.65625 9.078125-28.609375 22.523437-34.472657 7.449219 6.136719 15.476563 11.507813 23.96875 16.039063-.011718.015625-.023437.035156-.035156.046875-10.390625 13.140625-17.546875 28.503906-23.109375 44.214844-.222656.632812-2.789063 7.691406-2.597656 7.789062-1.535157-.769531-3.011719-1.648437-4.421875-2.628906zm-24.261719-141.703125v.042969c-.023437 5.542968-4.789063 10.285156-10.339844 10.277344-5.550781-.007813-10.304687-4.765626-10.304687-10.324219 0-5.210938 4.117187-9.75 9.300781-10.269531 5.984375-.601563 11.34375 4.273437 11.34375 10.273437zm-43.984375-36.070313c0-13.910156 10.480469-26.214843 24.191406-28.492187-.398437 2.007813-.746094 4.03125-1.0625 6.054687-1.703125 11-2.179687 22.304688-1.316406 33.449219.066406.851563.132812 1.699219.214844 2.550781-4.289063 2.207032-7.828125 5.582032-10.234375 9.707032-7.257813-5.367188-11.792969-13.996094-11.792969-23.269532zm20.25 114.710938c-2.167969-6.738281.179688-13.929688 3.144531-23.035156 2.769531-8.492188 6.035157-18.511719 6.175781-30.609375 1.757813.285156 3.65625.460937 5.4375.289062h.027344c.503906 1.070313 2.636719 5.3125 3.191406 6.363281 6.550782 12.375 14.824219 23.703126 24.585938 33.691407-.171875.101562-.332031.210937-.503906.3125-7.1875 4.324219-13.339844 10.441406-17.726563 17.625-2.804687 4.589843-4.90625 9.65625-6.171875 14.882812-10.214844-6.941406-16.1875-13.375-18.160156-19.519531zm40.90625 120.433594c-.042969 0-.089844 0-.136719 0-6.304687 0-12.25-2.867188-16.304687-7.863282-4.03125-4.96875-5.519532-11.167968-4.195313-17.457031 2.648438-12.585937 6.152344-22.230469 9.050781-28.816406 1.640626 1.917969 3.425782 3.695313 5.320313 5.351563.007813.011718.019531.019531.03125.03125 4.003906 3.480468 8.6875 6.507812 13.621094 8.648437-.082031.332031-.15625.671875-.238281 1-3.171876 12.785156-5.5 25.984375-7.148438 39.105469zm227.785156-7.863282c-4.054687 4.996094-9.996094 7.863282-16.300781 7.863282-.042969-.007813-.09375 0-.140625 0-.039062-.335938-.089844-.660156-.132812-.992188-1.625-12.722656-3.90625-25.570312-7.011719-38.097656-.082031-.335938-.15625-.679688-.238281-1.015625.15625-.066406.3125-.148437.46875-.21875 4.78125-2.140625 9.195312-5.007813 13.15625-8.433594.007812-.007812.015624-.015625.027343-.023437 1.898438-1.664063 3.691407-3.449219 5.339844-5.378906 2.878906 6.546874 6.359375 16.160156 9.03125 28.839843 1.324219 6.289063-.167969 12.488281-4.199219 17.457031zm24.46875-112.570312c-1.976562 6.148438-7.949218 12.578125-18.171875 19.503906-2.261719-9.3125-7.121093-18-13.933593-24.742187-1.863282-1.84375-3.953126-3.625-6.101563-5.195313-1.355469-.988281-2.761719-1.910156-4.207031-2.765625 9.636718-9.886719 17.921875-21.203125 24.515625-33.722656 1.117187-2.117187 2.199219-4.257813 3.210937-6.429687.058594.003906.117188.003906.175782.003906 1.730468.074218 3.476562-.023438 5.1875-.296875.140624 12.097656 3.40625 22.117187 6.175781 30.609375 2.96875 9.105468 5.3125 16.296875 3.148437 23.035156zm8.453125-91.4375c-2.402343-4.125-5.941406-7.5-10.222656-9.707031.550781-5.949219.734375-11.925781.558594-17.898438-.242188-8.097656-1.152344-16.214843-2.730469-24.160156 3.835938.636719 7.503906 2.039063 10.777344 4.117187 8.222656 5.210938 13.410156 14.640626 13.410156 24.375 0 9.277344-4.53125 17.902344-11.792969 23.273438zm-172.578125-64.480469c5.328125 3.667969 10.90625 6.671875 17.542969 6.671875 4.257813 0 8.648437-1.195312 12.324219-3.347656 14.34375-8.402344 25.316406-20.804688 32.296875-30.296875 7.34375 9.355469 16.304687 17.472656 26.417969 23.742187.011718.007813.023437.015626.035156.019532 16.3125 10.105468 35.578125 15.5625 54.734375 16.003906.136719.003906 1.496093-.023438 1.507812.023438 2.859375 12.886718 3.785157 26.148437 2.648438 39.300781v.035156c-.054688.007813-.105469.019531-.160157.027344-18.417968 2.511719-28.070312 24.5-17.296874 39.71875 1.457031 2.058593 3.242187 3.921875 5.246093 5.460937-.238281.496094-.480469.992188-.726562 1.484375-14.175781 28.742188-39.292969 51.925781-69.109375 63.699219-14.484375 5.71875-30.09375 8.820312-45.667969 9.085938-18.804687.320312-37.820313-3.507813-54.984375-11.226563-.050781-.023437-.101562-.039063-.152344-.0625-27.730468-11.769531-50.910156-34.917969-64.179687-61.796875-.117188-.234375-.523438-1.070312-.613281-1.25.054687-.042969.105468-.089844.160156-.132812 6.042968-4.765626 9.675781-12.183594 9.675781-19.886719 0-11.011719-7.453125-20.953125-17.941406-24.207031-1.308594-.40625-4.125-.90625-4.179688-.914063-.019531-.210937-.039062-.421875-.058593-.632813-1.015626-12.945312-.109376-26.027343 2.707031-38.703124 14.253906-.117188 28.554687-3.078126 41.710937-8.5625 15.964844-6.652344 30.070313-17.414063 40.789063-30.976563.050781-.070313.105469-.136719.160156-.207031.011719-.015625.023437-.027344.035156-.042969 6.109375 8.304687 15.273438 18.839844 27.078125 26.972656zm0 0"/></svg>