<svg width="34" height="34" viewBox="0 0 34 34" fill="none" xmlns="http://www.w3.org/2000/svg">
<path d="M4.95837 2.83334C4.77704 2.83334 4.59639 2.90345 4.45756 3.04086C4.18131 3.31711 4.18131 3.76624 4.45756 4.04249L7.21619 6.80112C4.52632 9.37823 2.83337 12.9887 2.83337 17C2.83337 24.8077 9.19232 31.1667 17 31.1667C24.8078 31.1667 31.1667 24.8077 31.1667 17C31.1667 9.72417 25.6509 3.70826 18.5717 2.92465C18.5248 2.91954 18.4777 2.91677 18.4305 2.91635C18.0671 2.91285 17.7161 3.04918 17.4504 3.29715C17.1846 3.54512 17.0243 3.88575 17.0026 4.2486C16.9809 4.61144 17.0995 4.96874 17.3339 5.24659C17.5683 5.52444 17.9005 5.70158 18.2618 5.74138C23.9297 6.36877 28.3334 11.1518 28.3334 17C28.3334 23.2768 23.2768 28.3333 17 28.3333C10.7233 28.3333 5.66671 23.2768 5.66671 17C5.66671 13.7566 7.03735 10.8579 9.21391 8.79884L11.5409 11.1258C11.8171 11.4021 12.2663 11.4021 12.5425 11.1258C12.6814 10.9884 12.75 10.8063 12.75 10.625V4.25001C12.75 3.87429 12.6008 3.51395 12.3351 3.24828C12.0694 2.9826 11.7091 2.83334 11.3334 2.83334H4.95837Z" fill="#F4E74D"/>
</svg>
